#format: frame checksums
#version: 1
#hash: MD5
#tb 0: 1001/30000
#stream#, dts,        pts, duration,     size, hash
0,          0,          0,        1,     3264, 3856635223f578e1e7f7e7250a53cb8d
0,          1,          1,        1,     3264, ee8d7c3a0ea165420d7e733b9e59219a
0,          2,          2,        1,     3264, 3d33f06bac22131f04e3411fc216dc02
0,          3,          3,        1,     3264, 7aea667775077de32250dac25fd24bb3
0,          4,          4,        1,     3264, 43fb534551f153c5e9e60240df0bf3b4
0,          5,          5,        1,     3264, d42b721aa2242d4258d97f840fdcc901
0,          6,          6,        1,     3264, e876200d720cbe6e36e0ffb775c5ad6c
0,          7,          7,        1,     3264, 453078449d8701270564086e58a1d69e
0,          8,          8,        1,     3264, 22cb799a817d45a7591489e6faa31cb9
0,          9,          9,        1,     3264, 628dc3f03bf5dd5cae135ad1e4b9ebf7
